<svg width="32" height="32" viewBox="0 0 32 32" fill="none" xmlns="http://www.w3.org/2000/svg">
<g filter="url(#filter0_d_233_4224)">
<mask id="path-1-outside-1_233_4224" maskUnits="userSpaceOnUse" x="8" y="7" width="16" height="19" fill="black">
<rect fill="white" x="8" y="7" width="16" height="19"/>
<path fill-rule="evenodd" clip-rule="evenodd" d="M12.8356 18L11.9489 16.6453C11.3436 15.7203 10.054 15.3829 9.06767 15.89L9.2975 15.7718C9.05272 15.8977 8.93534 16.2114 9.03613 16.4721L10.2634 19.6474C10.458 20.1508 10.9549 20.8627 11.3666 21.2203C11.3666 21.2203 13.8356 23.2639 13.8356 24.03V25H17.8355L18.8355 23L19.8355 25H20.8355V24.03C20.8355 23.2639 22.3444 20.8507 22.3444 20.8507C22.6221 20.3816 22.8536 19.5552 22.8536 19.0066V14.9718C22.8355 14.0785 22.0762 13.3545 21.1393 13.3545C20.6705 13.3545 20.2909 13.7165 20.2909 14.1634V14.4866C20.2909 13.5933 19.5315 12.8693 18.5946 12.8693C18.1258 12.8693 17.7462 13.2313 17.7462 13.6782V14.0013C17.7462 13.108 16.9868 12.3841 16.0499 12.3841C15.5812 12.3841 15.2015 12.7461 15.2015 13.193V13.5161C15.2015 13.3726 15.1862 13.2584 15.1565 13.168L14.8977 9.00121C14.8627 8.43776 14.3878 8 13.8356 8C13.2794 8 12.8356 8.44763 12.8356 8.99981V13V18Z"/>
</mask>
<path fill-rule="evenodd" clip-rule="evenodd" d="M12.8356 18L11.9489 16.6453C11.3436 15.7203 10.054 15.3829 9.06767 15.89L9.2975 15.7718C9.05272 15.8977 8.93534 16.2114 9.03613 16.4721L10.2634 19.6474C10.458 20.1508 10.9549 20.8627 11.3666 21.2203C11.3666 21.2203 13.8356 23.2639 13.8356 24.03V25H17.8355L18.8355 23L19.8355 25H20.8355V24.03C20.8355 23.2639 22.3444 20.8507 22.3444 20.8507C22.6221 20.3816 22.8536 19.5552 22.8536 19.0066V14.9718C22.8355 14.0785 22.0762 13.3545 21.1393 13.3545C20.6705 13.3545 20.2909 13.7165 20.2909 14.1634V14.4866C20.2909 13.5933 19.5315 12.8693 18.5946 12.8693C18.1258 12.8693 17.7462 13.2313 17.7462 13.6782V14.0013C17.7462 13.108 16.9868 12.3841 16.0499 12.3841C15.5812 12.3841 15.2015 12.7461 15.2015 13.193V13.5161C15.2015 13.3726 15.1862 13.2584 15.1565 13.168L14.8977 9.00121C14.8627 8.43776 14.3878 8 13.8356 8C13.2794 8 12.8356 8.44763 12.8356 8.99981V13V18Z" fill="white"/>
<path d="M12.8356 18L11.9988 18.5476L13.8356 21.3541V18H12.8356ZM11.9489 16.6453L12.7857 16.0977L12.7857 16.0977L11.9489 16.6453ZM9.06767 15.89L8.61032 15.0007L9.52489 16.7794L9.06767 15.89ZM9.2975 15.7718L9.75489 16.6611L8.84015 14.8825L9.2975 15.7718ZM9.03613 16.4721L9.96888 16.1116L9.96885 16.1115L9.03613 16.4721ZM10.2634 19.6474L11.1962 19.2869L11.1962 19.2869L10.2634 19.6474ZM11.3666 21.2203L10.7109 21.9753L10.7198 21.9831L10.729 21.9906L11.3666 21.2203ZM13.8356 25H12.8356V26H13.8356V25ZM17.8355 25V26H18.4535L18.7299 25.4472L17.8355 25ZM18.8355 23L19.7299 22.5528L18.8355 20.7639L17.9411 22.5528L18.8355 23ZM19.8355 25L18.9411 25.4472L19.2175 26H19.8355V25ZM20.8355 25V26H21.8355V25H20.8355ZM22.3444 20.8507L23.1923 21.3809L23.1987 21.3706L23.2049 21.3601L22.3444 20.8507ZM22.8536 14.9718H23.8536V14.9617L23.8534 14.9515L22.8536 14.9718ZM15.1565 13.168L14.1584 13.23L14.1664 13.3581L14.2064 13.48L15.1565 13.168ZM14.8977 9.00121L13.8997 9.06319V9.06319L14.8977 9.00121ZM13.6723 17.4524L12.7857 16.0977L11.1122 17.1929L11.9988 18.5476L13.6723 17.4524ZM12.7857 16.0977C11.898 14.7414 10.0489 14.2611 8.61045 15.0006L9.52489 16.7794C10.0592 16.5047 10.7891 16.6992 11.1122 17.1929L12.7857 16.0977ZM9.52502 16.7793L9.75485 16.6611L8.84015 14.8825L8.61032 15.0007L9.52502 16.7793ZM8.84011 14.8825C8.13123 15.2471 7.82211 16.1051 8.10341 16.8327L9.96885 16.1115C10.0145 16.2295 10.0045 16.3396 9.97401 16.4213C9.9436 16.5027 9.8765 16.5985 9.75489 16.6611L8.84011 14.8825ZM8.10338 16.8326L9.33065 20.0079L11.1962 19.2869L9.96888 16.1116L8.10338 16.8326ZM9.33064 20.0079C9.58336 20.6618 10.1747 21.5096 10.7109 21.9753L12.0223 20.4653C11.735 20.2158 11.3326 19.6398 11.1962 19.2869L9.33064 20.0079ZM11.3666 21.2203C10.729 21.9906 10.7289 21.9906 10.7289 21.9906C10.7289 21.9905 10.7288 21.9905 10.7288 21.9905C10.7288 21.9905 10.7288 21.9905 10.7289 21.9906C10.729 21.9906 10.7292 21.9909 10.7296 21.9912C10.7305 21.9919 10.7318 21.993 10.7338 21.9946C10.7377 21.9979 10.7438 22.003 10.752 22.0099C10.7684 22.0236 10.7932 22.0445 10.8251 22.0716C10.8889 22.1258 10.9811 22.2049 11.092 22.3025C11.3149 22.4985 11.6089 22.7648 11.9001 23.0511C12.1958 23.3416 12.4677 23.6325 12.6587 23.8795C12.7547 24.0037 12.813 24.0948 12.8432 24.1524C12.8837 24.23 12.8356 24.1741 12.8356 24.03H14.8356C14.8356 23.6944 14.7102 23.407 14.6158 23.2262C14.5109 23.0255 14.3763 22.8312 14.2408 22.6561C13.969 22.3045 13.6236 21.9408 13.3021 21.6247C12.976 21.3043 12.6528 21.0118 12.4128 20.8007C12.2922 20.6947 12.1915 20.6081 12.1203 20.5476C12.0847 20.5174 12.0564 20.4935 12.0367 20.477C12.0268 20.4687 12.0191 20.4623 12.0136 20.4577C12.0109 20.4555 12.0087 20.4537 12.0072 20.4524C12.0064 20.4517 12.0057 20.4512 12.0052 20.4508C12.005 20.4506 12.0048 20.4504 12.0046 20.4503C12.0045 20.4502 12.0045 20.4501 12.0044 20.4501C12.0043 20.45 12.0042 20.45 11.3666 21.2203ZM12.8356 24.03V25H14.8356V24.03H12.8356ZM13.8356 26H17.8355V24H13.8356V26ZM18.7299 25.4472L19.7299 23.4472L17.9411 22.5528L16.9411 24.5528L18.7299 25.4472ZM17.9411 23.4472L18.9411 25.4472L20.7299 24.5528L19.7299 22.5528L17.9411 23.4472ZM19.8355 26H20.8355V24H19.8355V26ZM21.8355 25V24.03H19.8355V25H21.8355ZM21.8355 24.03C21.8355 24.0658 21.8464 23.9439 21.9921 23.6001C22.116 23.3074 22.2881 22.9649 22.47 22.6279C22.6501 22.2941 22.8315 21.981 22.9685 21.7503C23.0367 21.6354 23.0934 21.5418 23.1327 21.4775C23.1524 21.4454 23.1677 21.4206 23.1778 21.4041C23.1829 21.3959 23.1867 21.3898 23.1892 21.3859C23.1904 21.3839 23.1913 21.3825 23.1918 21.3817C23.1921 21.3812 23.1922 21.381 23.1923 21.3808C23.1924 21.3808 23.1924 21.3807 23.1924 21.3807C23.1924 21.3807 23.1924 21.3808 23.1924 21.3808C23.1923 21.3808 23.1923 21.3809 22.3444 20.8507C21.4965 20.3205 21.4965 20.3206 21.4964 20.3207C21.4964 20.3207 21.4963 20.3208 21.4963 20.3209C21.4962 20.321 21.4961 20.3212 21.4959 20.3215C21.4957 20.3219 21.4953 20.3225 21.4948 20.3232C21.4939 20.3247 21.4926 20.3268 21.491 20.3294C21.4877 20.3347 21.483 20.3422 21.4771 20.3518C21.4651 20.3711 21.448 20.3989 21.4264 20.4343C21.3832 20.5049 21.322 20.6059 21.2488 20.7291C21.1029 20.9749 20.907 21.313 20.7099 21.6782C20.5145 22.0402 20.3094 22.4448 20.1505 22.82C20.0132 23.1441 19.8355 23.6111 19.8355 24.03H21.8355ZM23.2049 21.3601C23.4027 21.0261 23.5593 20.6131 23.6668 20.2257C23.774 19.839 23.8536 19.4008 23.8536 19.0066H21.8536C21.8536 19.161 21.8174 19.4103 21.7395 19.6912C21.6618 19.9715 21.5638 20.2062 21.4839 20.3413L23.2049 21.3601ZM23.8536 19.0066V14.9718H21.8536V19.0066H23.8536ZM23.8534 14.9515C23.8236 13.4819 22.5879 12.3545 21.1393 12.3545V14.3545C21.5645 14.3545 21.8474 14.6751 21.8538 14.9921L23.8534 14.9515ZM21.1393 12.3545C20.1637 12.3545 19.2909 13.1199 19.2909 14.1634H21.2909C21.2909 14.2317 21.2602 14.2857 21.2294 14.3151C21.1994 14.3437 21.1653 14.3545 21.1393 14.3545V12.3545ZM19.2909 14.1634V14.4866H21.2909V14.1634H19.2909ZM21.2909 14.4866C21.2909 12.9965 20.0383 11.8693 18.5946 11.8693V13.8693C19.0247 13.8693 19.2909 14.19 19.2909 14.4866H21.2909ZM18.5946 11.8693C17.619 11.8693 16.7462 12.6346 16.7462 13.6782H18.7462C18.7462 13.7464 18.7155 13.8005 18.6847 13.8299C18.6547 13.8585 18.6206 13.8693 18.5946 13.8693V11.8693ZM16.7462 13.6782V14.0013H18.7462V13.6782H16.7462ZM18.7462 14.0013C18.7462 12.5113 17.4936 11.3841 16.0499 11.3841V13.3841C16.48 13.3841 16.7462 13.7048 16.7462 14.0013H18.7462ZM16.0499 11.3841C15.0744 11.3841 14.2015 12.1493 14.2015 13.193H16.2015C16.2015 13.2613 16.1708 13.3153 16.14 13.3447C16.11 13.3733 16.076 13.3841 16.0499 13.3841V11.3841ZM14.2015 13.193V13.5161H16.2015V13.193H14.2015ZM16.2015 13.5161C16.2015 13.3092 16.1804 13.0809 16.1066 12.856L14.2064 13.48C14.1985 13.4557 14.1976 13.4443 14.1985 13.4515C14.1995 13.4586 14.2015 13.479 14.2015 13.5161H16.2015ZM16.1546 13.106L15.8958 8.93923L13.8997 9.06319L14.1584 13.23L16.1546 13.106ZM15.8958 8.93923C15.8279 7.84502 14.9125 7 13.8356 7V9C13.8444 9 13.8602 9.00346 13.8772 9.01933C13.8933 9.03438 13.8988 9.04976 13.8997 9.06319L15.8958 8.93923ZM13.8356 7C12.7248 7 11.8356 7.89768 11.8356 8.99981H13.8356V9V7ZM11.8356 8.99981V13H13.8356V8.99981H11.8356ZM11.8356 13V18H13.8356V13H11.8356Z" fill="#B1B1B1" mask="url(#path-1-outside-1_233_4224)"/>
<path fill-rule="evenodd" clip-rule="evenodd" d="M19.8535 17H20.8535V21H19.8535V17Z" fill="#B1B1B1"/>
<path fill-rule="evenodd" clip-rule="evenodd" d="M17.8535 17H18.8535V21H17.8535V17Z" fill="#B1B1B1"/>
<path fill-rule="evenodd" clip-rule="evenodd" d="M15.8535 17H16.8535V21H15.8535V17Z" fill="#B1B1B1"/>
</g>
<defs>
<filter id="filter0_d_233_4224" x="5" y="5" width="21.8535" height="25" filterUnits="userSpaceOnUse" color-interpolation-filters="sRGB">
<feFlood flood-opacity="0" result="BackgroundImageFix"/>
<feColorMatrix in="SourceAlpha" type="matrix" values="0 0 0 0 0 0 0 0 0 0 0 0 0 0 0 0 0 0 127 0" result="hardAlpha"/>
<feOffset dy="1"/>
<feGaussianBlur stdDeviation="1.5"/>
<feColorMatrix type="matrix" values="0 0 0 0 0 0 0 0 0 0 0 0 0 0 0 0 0 0 0.4 0"/>
<feBlend mode="normal" in2="BackgroundImageFix" result="effect1_dropShadow_233_4224"/>
<feBlend mode="normal" in="SourceGraphic" in2="effect1_dropShadow_233_4224" result="shape"/>
</filter>
</defs>
</svg>
