<svg width="32" height="32" viewBox="0 0 32 32" fill="none" xmlns="http://www.w3.org/2000/svg">
<path d="M4 6.66667C4 5.19391 5.19391 4 6.66667 4H11.039C11.6129 4 12.1224 4.36724 12.3039 4.9117L14.301 10.9029C14.5108 11.5324 14.2258 12.2204 13.6324 12.5172L10.6227 14.022C12.0923 17.2816 14.7184 19.9077 17.978 21.3773L19.4828 18.3676C19.7796 17.7742 20.4676 17.4892 21.0971 17.699L27.0883 19.6961C27.6328 19.8776 28 20.3871 28 20.961V25.3333C28 26.8061 26.8061 28 25.3333 28H24C12.9543 28 4 19.0457 4 8V6.66667Z" stroke="#b1b1b1" stroke-width="2" stroke-linecap="round" stroke-linejoin="round"/>
</svg>
