<svg width="32" height="32" viewBox="0 0 32 32" fill="none" xmlns="http://www.w3.org/2000/svg">
<path d="M23.5431 22.2091C22.1797 23.5725 19.192 26.5602 17.4133 28.3389C16.6323 29.12 15.3693 29.1203 14.5883 28.3392C12.8393 26.5903 9.91373 23.6647 8.45818 22.2091C4.29259 18.0435 4.29259 11.2898 8.45818 7.12419C12.6238 2.9586 19.3775 2.9586 23.5431 7.12419C27.7087 11.2898 27.7087 18.0435 23.5431 22.2091Z" stroke="#B1B1B1" stroke-width="2" stroke-linecap="round" stroke-linejoin="round"/>
<path d="M20.0007 14.6667C20.0007 16.8758 18.2098 18.6667 16.0007 18.6667C13.7915 18.6667 12.0007 16.8758 12.0007 14.6667C12.0007 12.4575 13.7915 10.6667 16.0007 10.6667C18.2098 10.6667 20.0007 12.4575 20.0007 14.6667Z" stroke="#B1B1B1" stroke-width="2" stroke-linecap="round" stroke-linejoin="round"/>
</svg>
    